<svg width="26" height="26" viewBox="0 0 26 26" fill="none" xmlns="http://www.w3.org/2000/svg">
<path d="M1 5.83358C1 4.30176 1 3.53584 1.2569 2.93435C1.57877 2.18074 2.17765 1.58029 2.92929 1.25757C3.5292 1 4.29311 1 5.82092 1C7.34874 1 8.11264 1 8.71256 1.25757C9.4642 1.58029 10.0631 2.18074 10.3849 2.93435C10.6418 3.53584 10.6418 4.30176 10.6418 5.83358C10.6418 7.3654 10.6418 8.13132 10.3849 8.73281C10.0631 9.48642 9.4642 10.0869 8.71256 10.4096C8.11264 10.6672 7.34874 10.6672 5.82092 10.6672C4.29311 10.6672 3.5292 10.6672 2.92929 10.4096C2.17765 10.0869 1.57877 9.48642 1.2569 8.73281C1 8.13132 1 7.3654 1 5.83358Z" stroke="#242F5C" stroke-width="2"/>
<path d="M14.3982 5.83358C14.3982 4.30176 14.3982 3.53584 14.655 2.93435C14.9769 2.18074 15.5758 1.58029 16.3274 1.25757C16.9274 1 17.6913 1 19.2191 1C20.7469 1 21.5108 1 22.1107 1.25757C22.8624 1.58029 23.4612 2.18074 23.7831 2.93435C24.04 3.53584 24.04 4.30176 24.04 5.83358C24.04 7.3654 24.04 8.13132 23.7831 8.73281C23.4612 9.48642 22.8624 10.0869 22.1107 10.4096C21.5108 10.6672 20.7469 10.6672 19.2191 10.6672C17.6913 10.6672 16.9274 10.6672 16.3274 10.4096C15.5758 10.0869 14.9769 9.48642 14.655 8.73281C14.3982 8.13132 14.3982 7.3654 14.3982 5.83358Z" stroke="#242F5C" stroke-width="2"/>
<path d="M1 19.2064C1 17.6746 1 16.9087 1.2569 16.3072C1.57877 15.5536 2.17765 14.9531 2.92929 14.6304C3.5292 14.3728 4.29311 14.3728 5.82092 14.3728C7.34874 14.3728 8.11264 14.3728 8.71256 14.6304C9.4642 14.9531 10.0631 15.5536 10.3849 16.3072C10.6418 16.9087 10.6418 17.6746 10.6418 19.2064C10.6418 20.7382 10.6418 21.5042 10.3849 22.1056C10.0631 22.8593 9.4642 23.4597 8.71256 23.7824C8.11264 24.04 7.34874 24.04 5.82092 24.04C4.29311 24.04 3.5292 24.04 2.92929 23.7824C2.17765 23.4597 1.57877 22.8593 1.2569 22.1056C1 21.5042 1 20.7382 1 19.2064Z" stroke="#242F5C" stroke-width="2"/>
<path d="M13.48 14.92C13.48 14.1247 14.1247 13.48 14.92 13.48H15.88C16.6753 13.48 17.32 14.1247 17.32 14.92V15.88C17.32 16.6753 16.6753 17.32 15.88 17.32H14.92C14.1247 17.32 13.48 16.6753 13.48 15.88V14.92Z" fill="#242F5C"/>
<path d="M25 14.92C25 14.1247 24.3553 13.48 23.56 13.48H22.6C21.8047 13.48 21.16 14.1247 21.16 14.92V15.88C21.16 16.6753 21.8047 17.32 22.6 17.32H23.56C24.3553 17.32 25 16.6753 25 15.88V14.92Z" fill="#242F5C"/>
<path d="M17.32 18.76C17.32 17.9647 17.9647 17.32 18.76 17.32H19.72C20.5153 17.32 21.16 17.9647 21.16 18.76V19.72C21.16 20.5153 20.5153 21.16 19.72 21.16H18.76C17.9647 21.16 17.32 20.5153 17.32 19.72V18.76Z" fill="#242F5C"/>
<path d="M21.16 22.6C21.16 21.8047 21.8047 21.16 22.6 21.16H23.56C24.3553 21.16 25 21.8047 25 22.6V23.56C25 24.3553 24.3553 25 23.56 25H22.6C21.8047 25 21.16 24.3553 21.16 23.56V22.6Z" fill="#242F5C"/>
<path d="M17.32 22.6C17.32 21.8047 16.6753 21.16 15.88 21.16H14.92C14.1247 21.16 13.48 21.8047 13.48 22.6V23.56C13.48 24.3553 14.1247 25 14.92 25H15.88C16.6753 25 17.32 24.3553 17.32 23.56V22.6Z" fill="#242F5C"/>
<path d="M3.88 5.32C3.88 4.52471 4.52471 3.88 5.32 3.88H6.28C7.07529 3.88 7.72001 4.52471 7.72001 5.32V6.28C7.72001 7.07529 7.07529 7.72001 6.28 7.72001H5.32C4.52471 7.72001 3.88 7.07529 3.88 6.28V5.32Z" fill="#242F5C"/>
<path d="M3.88 18.76C3.88 17.9647 4.52471 17.32 5.32 17.32H6.28C7.07529 17.32 7.72001 17.9647 7.72001 18.76V19.72C7.72001 20.5153 7.07529 21.16 6.28 21.16H5.32C4.52471 21.16 3.88 20.5153 3.88 19.72V18.76Z" fill="#242F5C"/>
<path d="M17.32 5.32C17.32 4.52471 17.9647 3.88 18.76 3.88H19.72C20.5153 3.88 21.16 4.52471 21.16 5.32V6.28C21.16 7.07529 20.5153 7.72001 19.72 7.72001H18.76C17.9647 7.72001 17.32 7.07529 17.32 6.28V5.32Z" fill="#242F5C"/>
</svg>
