<svg width="36" height="44" viewBox="0 0 36 44" fill="none" xmlns="http://www.w3.org/2000/svg">
<path d="M2 38.2114C2 33.1881 5.8796 28.9092 11.1521 28.1175L11.627 28.0462C15.849 27.4123 20.151 27.4123 24.373 28.0462L24.8479 28.1175C30.1204 28.9092 34 33.1881 34 38.2114C34 40.3827 32.1292 42.1429 29.8214 42.1429H6.17858C3.87081 42.1429 2 40.3827 2 38.2114Z" stroke="#242F5C" stroke-width="3"/>
<path d="M27.3333 10.7812C27.3333 15.631 23.1547 19.5625 18 19.5625C12.8453 19.5625 8.66667 15.631 8.66667 10.7812C8.66667 5.9315 12.8453 2 18 2C23.1547 2 27.3333 5.9315 27.3333 10.7812Z" stroke="#242F5C" stroke-width="3"/>
</svg>
