<svg width="949" height="524" viewBox="0 0 949 524" fill="none" xmlns="http://www.w3.org/2000/svg">
<g filter="url(#filter0_d_2113_350)">
<path d="M4 20C4 8.95431 12.9543 0 24 0H925C936.046 0 945 8.95431 945 20V496C945 507.046 936.046 516 925 516H24C12.9543 516 4 507.046 4 496V20Z" fill="#242F5C"/>
<path d="M24 2.5H925C934.665 2.5 942.5 10.335 942.5 20V496C942.5 505.665 934.665 513.5 925 513.5H24C14.335 513.5 6.5 505.665 6.5 496V20C6.5 10.335 14.335 2.5 24 2.5Z" stroke="black" stroke-width="5"/>
</g>
<line x1="59" y1="251" x2="59" y2="368" stroke="#FFFDFD" stroke-width="24" stroke-linecap="round"/>
<line x1="487" y1="125" x2="487" y2="390" stroke="#FFFDFD" stroke-width="24" stroke-linecap="round"/>
<path d="M908 218V358" stroke="#FFFDFD" stroke-width="24" stroke-linecap="round"/>
<ellipse cx="713.5" cy="239" rx="21.5" ry="20" fill="white"/>
<defs>
<filter id="filter0_d_2113_350" x="0" y="0" width="949" height="524" filterUnits="userSpaceOnUse" color-interpolation-filters="sRGB">
<feFlood flood-opacity="0" result="BackgroundImageFix"/>
<feColorMatrix in="SourceAlpha" type="matrix" values="0 0 0 0 0 0 0 0 0 0 0 0 0 0 0 0 0 0 127 0" result="hardAlpha"/>
<feOffset dy="4"/>
<feGaussianBlur stdDeviation="2"/>
<feComposite in2="hardAlpha" operator="out"/>
<feColorMatrix type="matrix" values="0 0 0 0 0 0 0 0 0 0 0 0 0 0 0 0 0 0 0.25 0"/>
<feBlend mode="normal" in2="BackgroundImageFix" result="effect1_dropShadow_2113_350"/>
<feBlend mode="normal" in="SourceGraphic" in2="effect1_dropShadow_2113_350" result="shape"/>
</filter>
</defs>
</svg>
