<svg width="81" height="71" viewBox="0 0 81 71" fill="none" xmlns="http://www.w3.org/2000/svg">
<path d="M18.3518 4.82967C25.959 4.08026 34.3046 3.49194 41.96 3.49194C49.6162 3.49194 57.9684 4.08037 65.5793 4.82993C70.8189 5.34588 74.9315 8.95354 75.5026 13.5103C76.3266 20.0888 77 27.3363 77 33.9526C77 40.5706 76.3266 47.8319 75.502 54.4186C74.9315 58.9755 70.8189 62.5831 65.5787 63.0943C57.9679 63.837 49.616 64.4132 41.96 64.4132C35.2833 64.4132 28.0818 63.9751 21.3028 63.3705L4 66.9516L8.01021 50.9156C7.383 45.3169 6.92023 39.4156 6.92023 33.9526C6.92023 27.3362 7.59896 20.0887 8.42654 13.5101C8.99968 8.95354 13.1125 5.34583 18.3518 4.82967Z" stroke="#242F5C" stroke-width="7" stroke-linejoin="round"/>
<path d="M28 26.379H56" stroke="#242F5C" stroke-width="7" stroke-linecap="round" stroke-linejoin="round"/>
<path d="M28 43.0242H50" stroke="#242F5C" stroke-width="7" stroke-linecap="round" stroke-linejoin="round"/>
</svg>
