<svg width="64" height="65" viewBox="0 0 64 65" fill="none" xmlns="http://www.w3.org/2000/svg">
<path d="M22.6667 23L41.3333 42M41.3333 23L22.6667 42M18.9333 61H45.0667C50.2938 61 52.9074 61 54.9039 59.9646C56.6601 59.0538 58.0879 57.6004 58.9827 55.8129C60 53.7807 60 51.1205 60 45.8V19.2C60 13.8795 60 11.2193 58.9827 9.18709C58.0879 7.39955 56.6601 5.94624 54.9039 5.03544C52.9074 4 50.2938 4 45.0667 4H18.9333C13.7062 4 11.0926 4 9.09609 5.03544C7.33991 5.94624 5.91209 7.39955 5.01727 9.18709C4 11.2193 4 13.8795 4 19.2V45.8C4 51.1205 4 53.7807 5.01727 55.8129C5.91209 57.6004 7.33991 59.0538 9.09609 59.9646C11.0926 61 13.7062 61 18.9333 61Z" stroke="#242F5C" stroke-width="7" stroke-linecap="round" stroke-linejoin="round"/>
</svg>
