<svg width="81" height="83" viewBox="0 0 81 83" fill="none" xmlns="http://www.w3.org/2000/svg">
<path d="M54.1469 57.6399H67.8587C72.8864 57.6399 77 61.4773 77 66.1674V70.4311C77 75.1212 72.8864 78.9585 67.8587 78.9585H54.1469C49.1192 78.9585 45.0056 75.1212 45.0056 70.4311V66.1674C45.0056 61.4773 49.1192 57.6399 54.1469 57.6399Z" stroke="#242F5C" stroke-width="7" stroke-linecap="round" stroke-linejoin="round"/>
<path d="M54.1466 3.99999H67.8585C72.8862 3.99999 76.9998 7.83733 76.9998 12.5274V38.1097C76.9998 42.7997 72.8862 46.6371 67.8585 46.6371H54.1466C49.1189 46.6371 45.0054 42.7997 45.0054 38.1097V12.5274C45.0054 7.83733 49.1189 3.99999 54.1466 3.99999Z" stroke="#242F5C" stroke-width="7" stroke-linecap="round" stroke-linejoin="round"/>
<path d="M13.1413 25.3187H26.8531C31.8808 25.3187 35.9944 21.4814 35.9944 16.7913V12.5276C35.9944 7.83752 31.8808 4.00018 26.8531 4.00018H13.1413C8.11357 4.00018 4 7.83752 4 12.5276V16.7913C4 21.4814 8.11357 25.3187 13.1413 25.3187Z" stroke="#242F5C" stroke-width="7" stroke-linecap="round" stroke-linejoin="round"/>
<path d="M13.1413 78.9586H26.8531C31.8808 78.9586 35.9944 75.1213 35.9944 70.4312V44.8489C35.9944 40.1589 31.8808 36.3215 26.8531 36.3215H13.1413C8.11357 36.3215 4 40.1589 4 44.8489V70.4312C4 75.1213 8.11357 78.9586 13.1413 78.9586Z" stroke="#242F5C" stroke-width="7" stroke-linecap="round" stroke-linejoin="round"/>
</svg>
