<svg width="29" height="25" viewBox="0 0 29 25" fill="none" xmlns="http://www.w3.org/2000/svg">
<path d="M18.5 23C18.5 23.8284 19.1716 24.5 20 24.5C20.8284 24.5 21.5 23.8284 21.5 23H18.5ZM0.5 23C0.5 23.8284 1.17157 24.5 2 24.5C2.82843 24.5 3.5 23.8284 3.5 23H0.5ZM21 10.5435C20.1716 10.5435 19.5 11.2151 19.5 12.0435C19.5 12.8719 20.1716 13.5435 21 13.5435V10.5435ZM27 13.5435C27.8284 13.5435 28.5 12.8719 28.5 12.0435C28.5 11.2151 27.8284 10.5435 27 10.5435V13.5435ZM25.5 9.30435C25.5 8.47592 24.8284 7.80435 24 7.80435C23.1716 7.80435 22.5 8.47592 22.5 9.30435H25.5ZM22.5 14.7826C22.5 15.611 23.1716 16.2826 24 16.2826C24.8284 16.2826 25.5 15.611 25.5 14.7826H22.5ZM16.25 8.3C16.25 10.8552 13.9986 13.1 11 13.1V16.1C15.4572 16.1 19.25 12.7036 19.25 8.3H16.25ZM11 13.1C8.00135 13.1 5.75 10.8552 5.75 8.3H2.75C2.75 12.7036 6.5428 16.1 11 16.1V13.1ZM5.75 8.3C5.75 5.74483 8.00135 3.5 11 3.5V0.5C6.5428 0.5 2.75 3.89638 2.75 8.3H5.75ZM11 3.5C13.9986 3.5 16.25 5.74483 16.25 8.3H19.25C19.25 3.89638 15.4572 0.5 11 0.5V3.5ZM3.5 23C3.5 21.8147 3.50276 20.82 3.62615 19.9382C3.74704 19.0743 3.97032 18.4396 4.33072 17.9526C5.01012 17.0346 6.61148 16.1 11 16.1V13.1C6.38852 13.1 3.48988 14.0458 1.91928 16.168C1.15468 17.2011 0.815457 18.3765 0.655098 19.5225C0.497241 20.6506 0.5 21.8657 0.5 23H3.5ZM10.9696 16.0997C15.373 16.189 16.9904 17.1176 17.6758 18.0298C18.0333 18.5056 18.2543 19.1216 18.3743 19.9668C18.4971 20.8325 18.5 21.8138 18.5 23H21.5C21.5 21.8666 21.5029 20.6609 21.3445 19.5452C21.1832 18.4091 20.8417 17.2493 20.0742 16.2277C18.5096 14.1454 15.627 13.1936 11.0304 13.1003L10.9696 16.0997ZM21 13.5435H24V10.5435H21V13.5435ZM24 13.5435H27V10.5435H24V13.5435ZM22.5 9.30435V12.0435H25.5V9.30435H22.5ZM22.5 12.0435V14.7826H25.5V12.0435H22.5Z" fill="#242F5C"/>
</svg>
