<svg width="78" height="66" viewBox="0 0 78 66" fill="none" xmlns="http://www.w3.org/2000/svg">
<path d="M4 56.1977C4 48.9074 9.69816 42.6976 17.4421 41.5487L18.1397 41.4452C24.3407 40.5252 30.6593 40.5252 36.8603 41.4452L37.5579 41.5487C45.3018 42.6976 51 48.9074 51 56.1977C51 59.3488 48.2522 61.9032 44.8627 61.9032H10.1373C6.74776 61.9032 4 59.3488 4 56.1977Z" fill="#B6B6F9" fill-opacity="0.67"/>
<path d="M41.2083 16.3891C41.2083 23.4274 35.0709 29.133 27.5 29.133C19.9291 29.133 13.7917 23.4274 13.7917 16.3891C13.7917 9.3508 19.9291 3.64514 27.5 3.64514C35.0709 3.64514 41.2083 9.3508 41.2083 16.3891Z" fill="#B6B6F9" fill-opacity="0.67"/>
<path d="M4 56.1977C4 48.9074 9.69816 42.6976 17.4421 41.5487L18.1397 41.4452C24.3407 40.5252 30.6593 40.5252 36.8603 41.4452L37.5579 41.5487C45.3018 42.6976 51 48.9074 51 56.1977C51 59.3488 48.2522 61.9032 44.8627 61.9032H10.1373C6.74776 61.9032 4 59.3488 4 56.1977Z" stroke="#242F5C" stroke-width="7"/>
<path d="M41.2083 16.3891C41.2083 23.4274 35.0709 29.133 27.5 29.133C19.9291 29.133 13.7917 23.4274 13.7917 16.3891C13.7917 9.3508 19.9291 3.64514 27.5 3.64514C35.0709 3.64514 41.2083 9.3508 41.2083 16.3891Z" stroke="#242F5C" stroke-width="7"/>
<path d="M51 29.133C58.4098 29.133 64.4167 23.4274 64.4167 16.3891C64.4167 9.3508 58.4098 3.64514 51 3.64514M60.1612 61.9032H67.9933C71.3107 61.9032 74 59.3488 74 56.1977C74 48.9074 68.4231 42.6976 60.8439 41.5487V41.5487C60.3894 41.4798 59.9295 41.4452 59.4698 41.4452C58.2434 41.4452 57.863 41.4452 55.7578 41.4452" stroke="#242F5C" stroke-width="7" stroke-linecap="round"/>
</svg>
