<svg width="76" height="67" viewBox="0 0 76 67" fill="none" xmlns="http://www.w3.org/2000/svg">
<path d="M37.649 22.4968C37.0174 22.4981 36.4055 22.273 35.9208 21.861C35.4361 21.449 35.1097 20.8764 34.9987 20.2438C34.6148 17.8545 34.713 15.4108 35.2872 13.0613C35.8614 10.7119 36.8997 8.50592 38.3388 6.57778C40.3018 4.46058 42.708 2.82006 45.3791 1.77786C48.0502 0.735657 50.9177 0.318511 53.7688 0.557351C54.1264 0.557351 54.4805 0.629004 54.8108 0.768216C55.1412 0.907429 55.4414 1.11148 55.6942 1.36871C55.9471 1.62594 56.1476 1.93131 56.2845 2.2674C56.4213 2.60349 56.4918 2.96371 56.4918 3.32749C56.4918 3.69127 56.4213 4.05148 56.2845 4.38757C56.1476 4.72366 55.9471 5.02904 55.6942 5.28627C55.4414 5.5435 55.1412 5.74755 54.8108 5.88676C54.4805 6.02597 54.1264 6.09762 53.7688 6.09762C51.7229 5.88789 49.6567 6.13996 47.7176 6.83585C45.7784 7.53175 44.0141 8.65433 42.5503 10.1236C40.6688 12.7534 39.8738 16.028 40.3357 19.2465C40.4533 19.965 40.2918 20.7019 39.8854 21.3015C39.4789 21.9011 38.8592 22.3165 38.1573 22.4599L37.649 22.4968Z" fill="#242F5C"/>
<path d="M14.5223 66.2283C10.6708 66.2283 6.97696 64.6718 4.25349 61.9011C1.53003 59.1304 0 55.3726 0 51.4543V31.7309C0 27.8126 1.53003 24.0547 4.25349 21.2841C6.97696 18.5134 10.6708 16.9568 14.5223 16.9568C15.2445 16.9568 15.9371 17.2487 16.4477 17.7682C16.9584 18.2877 17.2453 18.9923 17.2453 19.727C17.2453 20.4617 16.9584 21.1663 16.4477 21.6858C15.9371 22.2053 15.2445 22.4971 14.5223 22.4971C13.3371 22.497 12.1638 22.7368 11.0706 23.2026C9.97746 23.6684 8.98636 24.351 8.15509 25.2104C7.32382 26.0698 6.66901 27.089 6.22881 28.2084C5.78861 29.3279 5.57183 30.5253 5.5911 31.7309V51.7498C5.5133 52.9892 5.6861 54.2317 6.09883 55.4006C6.51156 56.5694 7.15545 57.6398 7.99073 58.5455C8.82601 59.4513 9.83495 60.1732 10.9552 60.6667C12.0755 61.1602 13.2834 61.4148 14.5042 61.4148C15.725 61.4148 16.9328 61.1602 18.0531 60.6667C19.1734 60.1732 20.1824 59.4513 21.0176 58.5455C21.8529 57.6398 22.4968 56.5694 22.9095 55.4006C23.3223 54.2317 23.4951 52.9892 23.4173 51.7498V41.5926C23.4173 40.8579 23.7041 40.1533 24.2148 39.6338C24.7254 39.1143 25.418 38.8225 26.1402 38.8225C26.8624 38.8225 27.555 39.1143 28.0656 39.6338C28.5763 40.1533 28.8631 40.8579 28.8631 41.5926V51.602C28.8255 55.4629 27.3036 59.1554 24.6233 61.8891C21.943 64.6227 18.3173 66.1803 14.5223 66.2283Z" fill="#242F5C"/>
<path d="M60.8124 66.2281C56.9608 66.2281 53.267 64.6715 50.5435 61.9009C47.8201 59.1302 46.29 55.3724 46.29 51.454V41.5923C46.29 40.8577 46.5769 40.1531 47.0876 39.6336C47.5982 39.1141 48.2908 38.8222 49.013 38.8222C49.7351 38.8222 50.4277 39.1141 50.9384 39.6336C51.449 40.1531 51.7359 40.8577 51.7359 41.5923V51.6018C51.6581 52.8412 51.8309 54.0837 52.2436 55.2526C52.6564 56.4214 53.3003 57.4918 54.1355 58.3975C54.9708 59.3033 55.9798 60.0252 57.1001 60.5187C58.2203 61.0122 59.4282 61.2668 60.649 61.2668C61.8698 61.2668 63.0777 61.0122 64.1979 60.5187C65.3182 60.0252 66.3272 59.3033 67.1625 58.3975C67.9977 57.4918 68.6416 56.4214 69.0544 55.2526C69.4671 54.0837 69.6399 52.8412 69.5621 51.6018V31.7307C69.591 30.5379 69.3868 29.3512 68.9614 28.2394C68.536 27.1275 67.8978 26.1127 67.0839 25.2537C66.2699 24.3947 65.2965 23.7087 64.2199 23.2355C63.1433 22.7622 61.9851 22.5112 60.8124 22.4969C60.0902 22.4969 59.3976 22.205 58.887 21.6855C58.3763 21.166 58.0894 20.4614 58.0894 19.7267C58.0894 18.992 58.3763 18.2874 58.887 17.7679C59.3976 17.2484 60.0902 16.9566 60.8124 16.9566C62.7124 16.9515 64.5944 17.3315 66.3485 18.0744C68.1025 18.8174 69.6935 19.9084 71.0286 21.2838C72.3636 22.6592 73.4159 24.2913 74.1241 26.085C74.8323 27.8787 75.1821 29.7979 75.1532 31.7307V51.7495C75.0781 55.5846 73.5397 59.2397 70.8634 61.9417C68.187 64.6438 64.5826 66.1809 60.8124 66.2281Z" fill="#242F5C"/>
<path d="M49.1583 44.3621H26.1404C25.4183 44.3621 24.7257 44.0702 24.215 43.5507C23.7044 43.0312 23.4175 42.3266 23.4175 41.5919C23.4175 40.8572 23.7044 40.1526 24.215 39.6331C24.7257 39.1136 25.4183 38.8218 26.1404 38.8218H49.1583C49.8805 38.8218 50.5731 39.1136 51.0837 39.6331C51.5944 40.1526 51.8813 40.8572 51.8813 41.5919C51.8813 42.3266 51.5944 43.0312 51.0837 43.5507C50.5731 44.0702 49.8805 44.3621 49.1583 44.3621Z" fill="#242F5C"/>
<path d="M60.7761 22.4971H14.4861C13.764 22.4971 13.0714 22.2053 12.5607 21.6858C12.0501 21.1663 11.7632 20.4617 11.7632 19.727C11.7632 18.9923 12.0501 18.2877 12.5607 17.7682C13.0714 17.2487 13.764 16.9568 14.4861 16.9568H60.7761C61.4982 16.9568 62.1908 17.2487 62.7015 17.7682C63.2121 18.2877 63.499 18.9923 63.499 19.727C63.499 20.4617 63.2121 21.1663 62.7015 21.6858C62.1908 22.2053 61.4982 22.4971 60.7761 22.4971Z" fill="#242F5C"/>
</svg>
