<svg width="38" height="26" viewBox="0 0 38 26" fill="none" xmlns="http://www.w3.org/2000/svg">
<path d="M26.1394 24C26.1394 24.8284 26.811 25.5 27.6394 25.5C28.4678 25.5 29.1394 24.8284 29.1394 24H26.1394ZM8.52173 24C8.52173 24.8284 9.19331 25.5 10.0217 25.5C10.8502 25.5 11.5217 24.8284 11.5217 24H8.52173ZM30.4751 17.8783V16.3783C29.6527 16.3783 28.9837 17.0403 28.9751 17.8626C28.9665 18.6848 29.6216 19.3607 30.4437 19.3779L30.4751 17.8783ZM29.9734 7.19565C29.145 7.19565 28.4734 7.86722 28.4734 8.69565C28.4734 9.52408 29.145 10.1957 29.9734 10.1957V7.19565ZM34.4589 24C34.4589 24.8284 35.1305 25.5 35.9589 25.5C36.7873 25.5 37.4589 24.8284 37.4589 24H34.4589ZM7.52461 17.8783L7.55598 19.3779C8.37811 19.3607 9.03313 18.6848 9.02453 17.8626C9.01593 17.0403 8.34692 16.3783 7.52461 16.3783V17.8783ZM8.02659 10.1957C8.85502 10.1957 9.52659 9.52408 9.52659 8.69565C9.52659 7.86722 8.85502 7.19565 8.02659 7.19565V10.1957ZM0.541093 24C0.541093 24.8284 1.21267 25.5 2.04109 25.5C2.86952 25.5 3.54109 24.8284 3.54109 24H0.541093ZM23.9372 8.6C23.9372 11.4152 21.6523 13.7 18.8306 13.7V16.7C23.3063 16.7 26.9372 13.0749 26.9372 8.6H23.9372ZM18.8306 13.7C16.0088 13.7 13.7239 11.4152 13.7239 8.6H10.7239C10.7239 13.0749 14.3548 16.7 18.8306 16.7V13.7ZM13.7239 8.6C13.7239 5.78477 16.0088 3.5 18.8306 3.5V0.5C14.3548 0.5 10.7239 4.12508 10.7239 8.6H13.7239ZM18.8306 3.5C21.6523 3.5 23.9372 5.78477 23.9372 8.6H26.9372C26.9372 4.12507 23.3063 0.5 18.8306 0.5V3.5ZM11.5217 24C11.5217 22.7611 11.5241 21.7066 11.6467 20.7691C11.7675 19.8451 11.9924 19.1573 12.3566 18.6305C13.0244 17.6648 14.5676 16.7 18.8306 16.7V13.7C14.2847 13.7 11.4235 14.7052 9.88904 16.9244C9.15216 17.9901 8.82651 19.1985 8.67203 20.3802C8.51932 21.5483 8.52173 22.8089 8.52173 24H11.5217ZM18.798 16.6996C23.0777 16.7926 24.6374 17.752 25.3106 18.711C25.6719 19.2256 25.8948 19.8938 26.0148 20.7987C26.1369 21.7195 26.1394 22.7602 26.1394 24H29.1394C29.1394 22.8097 29.1419 21.5593 28.9888 20.4043C28.8335 19.2335 28.5059 18.0413 27.766 16.9874C26.237 14.8093 23.3923 13.7987 18.8631 13.7004L18.798 16.6996ZM32.8684 13.287C32.8684 14.3299 32.607 15.1208 32.2243 15.6146C31.8804 16.0584 31.3555 16.3783 30.4751 16.3783V19.3783C32.2298 19.3783 33.6516 18.6704 34.5955 17.4524C35.5007 16.2845 35.8684 14.7797 35.8684 13.287H32.8684ZM29.9734 10.1957C31.6736 10.1957 32.8684 11.469 32.8684 13.287H35.8684C35.8684 10.0335 33.5436 7.19565 29.9734 7.19565V10.1957ZM30.4437 19.3779C33.565 19.4432 34.1204 20.1262 34.276 20.4211C34.3998 20.6557 34.4817 21.0209 34.4971 21.6713C34.5046 21.9877 34.4965 22.3307 34.4849 22.7278C34.4735 23.1135 34.4589 23.5501 34.4589 24H37.4589C37.4589 23.6046 37.4717 23.2202 37.4836 22.8157C37.4951 22.4225 37.5059 22.006 37.4963 21.6004C37.4775 20.8068 37.3813 19.8778 36.9294 19.0212C35.9335 17.1338 33.747 16.4464 30.5064 16.3786L30.4437 19.3779ZM2.13158 13.287C2.13158 14.7796 2.49917 16.2844 3.40423 17.4523C4.34813 18.6704 5.76984 19.3783 7.52461 19.3783V16.3783C6.64418 16.3783 6.11937 16.0584 5.77556 15.6147C5.3929 15.1209 5.13158 14.33 5.13158 13.287H2.13158ZM8.02659 7.19565C4.45641 7.19565 2.13158 10.0335 2.13158 13.287H5.13158C5.13158 11.4689 6.32637 10.1957 8.02659 10.1957V7.19565ZM7.49324 16.3786C4.25268 16.4464 2.06614 17.1338 1.07041 19.0213C0.618516 19.8779 0.522405 20.8069 0.503662 21.6004C0.494081 22.0061 0.504883 22.4225 0.516419 22.8157C0.528287 23.2202 0.541093 23.6046 0.541093 24H3.54109C3.54109 23.5501 3.52645 23.1135 3.51513 22.7277C3.50348 22.3306 3.49535 21.9876 3.50283 21.6713C3.51819 21.0208 3.60009 20.6556 3.72383 20.4211C3.87938 20.1262 4.4346 19.4432 7.55598 19.3779L7.49324 16.3786Z" fill="#7C8194"/>
</svg>
