<svg width="43" height="22" viewBox="0 0 43 22" fill="none" xmlns="http://www.w3.org/2000/svg">
<path d="M31.3 21.78H11.62C8.57709 21.6651 5.7005 20.4762 3.59182 18.462C1.48313 16.4478 0.305664 13.7642 0.305664 10.9725C0.305664 8.18086 1.48313 5.49729 3.59182 3.48306C5.7005 1.46883 8.57709 0.279946 11.62 0.165039H31.3C34.3429 0.279946 37.2194 1.46883 39.3281 3.48306C41.4368 5.49729 42.6143 8.18086 42.6143 10.9725C42.6143 13.7642 41.4368 16.4478 39.3281 18.462C37.2194 20.4762 34.3429 21.6651 31.3 21.78V21.78ZM11.62 2.91504C9.36124 3.01383 7.23069 3.90588 5.67028 5.40613C4.10987 6.90638 3.23937 8.89968 3.23937 10.9725C3.23937 13.0454 4.10987 15.0387 5.67028 16.5389C7.23069 18.0392 9.36124 18.9312 11.62 19.03H31.3C33.5587 18.9312 35.6893 18.0392 37.2497 16.5389C38.8101 15.0387 39.6806 13.0454 39.6806 10.9725C39.6806 8.89968 38.8101 6.90638 37.2497 5.40613C35.6893 3.90588 33.5587 3.01383 31.3 2.91504H11.62Z" fill="#242F5C"/>
<path d="M10.8398 15.3084C10.442 15.3084 10.0605 15.1636 9.77918 14.9057C9.49788 14.6478 9.33984 14.2981 9.33984 13.9334V7.9751C9.33984 7.61043 9.49788 7.26069 9.77918 7.00282C10.0605 6.74496 10.442 6.6001 10.8398 6.6001C11.2377 6.6001 11.6192 6.74496 11.9005 7.00282C12.1818 7.26069 12.3398 7.61043 12.3398 7.9751V13.9334C12.3347 14.2966 12.175 14.6436 11.8948 14.9005C11.6146 15.1573 11.2361 15.3037 10.8398 15.3084Z" fill="#242F5C"/>
<path d="M14.0801 12.3201H7.58008C7.18225 12.3201 6.80072 12.1752 6.51942 11.9173C6.23811 11.6595 6.08008 11.3097 6.08008 10.9451C6.08008 10.5804 6.23811 10.2307 6.51942 9.9728C6.80072 9.71493 7.18225 9.57007 7.58008 9.57007H14.0801C14.4779 9.57007 14.8594 9.71493 15.1407 9.9728C15.422 10.2307 15.5801 10.5804 15.5801 10.9451C15.5801 11.3097 15.422 11.6595 15.1407 11.9173C14.8594 12.1752 14.4779 12.3201 14.0801 12.3201Z" fill="#242F5C"/>
<path d="M32.0801 15.3451C31.6839 15.3403 31.3053 15.1939 31.0251 14.9371C30.745 14.6802 30.5853 14.3332 30.5801 13.9701V8.01172C30.5801 7.64705 30.7381 7.29731 31.0194 7.03945C31.3007 6.78159 31.6823 6.63672 32.0801 6.63672C32.4779 6.63672 32.8594 6.78159 33.1407 7.03945C33.422 7.29731 33.5801 7.64705 33.5801 8.01172V13.9701C33.5801 14.3347 33.422 14.6845 33.1407 14.9423C32.8594 15.2002 32.4779 15.3451 32.0801 15.3451V15.3451Z" fill="#242F5C"/>
<path d="M35.3398 12.3567H28.8398C28.442 12.3567 28.0605 12.2118 27.7792 11.954C27.4979 11.6961 27.3398 11.3464 27.3398 10.9817C27.3398 10.617 27.4979 10.2673 27.7792 10.0094C28.0605 9.75156 28.442 9.60669 28.8398 9.60669H35.3398C35.7377 9.60669 36.1192 9.75156 36.4005 10.0094C36.6818 10.2673 36.8398 10.617 36.8398 10.9817C36.8398 11.3464 36.6818 11.6961 36.4005 11.954C36.1192 12.2118 35.7377 12.3567 35.3398 12.3567V12.3567Z" fill="#242F5C"/>
</svg>
