<svg width="89" height="96" viewBox="0 0 89 96" fill="none" xmlns="http://www.w3.org/2000/svg">
<mask id="path-1-outside-1_1679_347" maskUnits="userSpaceOnUse" x="0" y="0" width="89" height="77" fill="black">
<rect fill="white" width="89" height="77"/>
<path d="M26.739 12.5975C31.4495 7.73293 37.8383 5 44.5 5C51.1616 5 57.5504 7.73293 62.2609 12.5975C66.9715 17.4621 69.6179 24.06 69.6179 30.9396C69.6179 34.9875 70.2647 38.791 71.2378 42.6815C71.5103 43.5623 71.8107 44.3933 72.1338 45.1774C73.639 48.834 77.7833 50.0818 80.876 52.446C85.4921 55.975 84.5994 63.526 80.7599 66.4578C80.7599 66.4578 74.5609 72 44.5 72C14.4388 72 8.23985 66.4578 8.23985 66.4578C4.40051 63.526 3.50809 55.975 8.12398 52.446C11.2164 50.0818 15.3607 48.8343 16.8664 45.1777C18.3671 41.5329 19.3822 36.8704 19.3822 30.9396C19.3822 24.06 22.0285 17.4621 26.739 12.5975Z"/>
</mask>
<path d="M26.739 12.5975C31.4495 7.73293 37.8383 5 44.5 5C51.1616 5 57.5504 7.73293 62.2609 12.5975C66.9715 17.4621 69.6179 24.06 69.6179 30.9396C69.6179 34.9875 70.2647 38.791 71.2378 42.6815C71.5103 43.5623 71.8107 44.3933 72.1338 45.1774C73.639 48.834 77.7833 50.0818 80.876 52.446C85.4921 55.975 84.5994 63.526 80.7599 66.4578C80.7599 66.4578 74.5609 72 44.5 72C14.4388 72 8.23985 66.4578 8.23985 66.4578C4.40051 63.526 3.50809 55.975 8.12398 52.446C11.2164 50.0818 15.3607 48.8343 16.8664 45.1777C18.3671 41.5329 19.3822 36.8704 19.3822 30.9396C19.3822 24.06 22.0285 17.4621 26.739 12.5975Z" fill="#E0E0FF"/>
<path d="M26.739 12.5975C31.4495 7.73293 37.8383 5 44.5 5C51.1616 5 57.5504 7.73293 62.2609 12.5975C66.9715 17.4621 69.6179 24.06 69.6179 30.9396C69.6179 34.9875 70.2647 38.791 71.2378 42.6815C71.5103 43.5623 71.8107 44.3933 72.1338 45.1774C73.639 48.834 77.7833 50.0818 80.876 52.446C85.4921 55.975 84.5994 63.526 80.7599 66.4578C80.7599 66.4578 74.5609 72 44.5 72C14.4388 72 8.23985 66.4578 8.23985 66.4578C4.40051 63.526 3.50809 55.975 8.12398 52.446C11.2164 50.0818 15.3607 48.8343 16.8664 45.1777C18.3671 41.5329 19.3822 36.8704 19.3822 30.9396C19.3822 24.06 22.0285 17.4621 26.739 12.5975Z" stroke="#242F5C" stroke-width="10" stroke-linecap="round" stroke-linejoin="round" mask="url(#path-1-outside-1_1679_347)"/>
<mask id="path-2-outside-2_1679_347" maskUnits="userSpaceOnUse" x="30" y="80" width="29" height="16" fill="black">
<rect fill="white" x="30" y="80" width="29" height="16"/>
<path d="M36 86C37.6247 88.9756 40.8218 91 44.5 91C48.1782 91 51.3752 88.9756 53 86"/>
</mask>
<path d="M36 86C37.6247 88.9756 40.8218 91 44.5 91C48.1782 91 51.3752 88.9756 53 86" fill="#E0E0FF"/>
<path d="M40.3884 83.6038C39.0651 81.1802 36.0275 80.2882 33.6038 81.6116C31.1802 82.9349 30.2882 85.9725 31.6116 88.3962L40.3884 83.6038ZM57.3884 88.3962C58.7118 85.9726 57.8199 82.935 55.3962 81.6116C52.9726 80.2882 49.935 81.1801 48.6116 83.6038L57.3884 88.3962ZM31.6116 88.3962C34.093 92.9408 38.952 96 44.5 96V86C42.6916 86 41.1565 85.0104 40.3884 83.6038L31.6116 88.3962ZM44.5 96C50.0481 96 54.9069 92.9408 57.3884 88.3962L48.6116 83.6038C47.8435 85.0105 46.3083 86 44.5 86V96Z" fill="#242F5C" mask="url(#path-2-outside-2_1679_347)"/>
</svg>
