<svg width="82" height="76" viewBox="0 0 82 76" fill="none" xmlns="http://www.w3.org/2000/svg">
<path d="M52 33.75C60.3763 33.75 67.1667 27.0902 67.1667 18.875C67.1667 10.6598 60.3763 4 52 4M62.3561 72H71.2098C74.9599 72 78 69.0184 78 65.3404C78 56.831 71.6956 49.5829 63.1278 48.2418V48.2418C62.6141 48.1614 62.094 48.121 61.574 48.121C60.1881 48.121 59.7579 48.121 57.3784 48.121" stroke="white" stroke-width="7" stroke-linecap="round"/>
<path d="M4 65.3404C4 56.831 10.1831 49.5829 18.5862 48.2418L19.3431 48.121C26.0718 47.0471 32.9282 47.0471 39.6569 48.121L40.4138 48.2418C48.8169 49.5829 55 56.831 55 65.3404C55 69.0184 52.0184 72 48.3404 72H10.6596C6.98161 72 4 69.0184 4 65.3404Z" fill="#CFCFFF"/>
<path d="M44.375 18.875C44.375 27.0902 37.7152 33.75 29.5 33.75C21.2848 33.75 14.625 27.0902 14.625 18.875C14.625 10.6598 21.2848 4 29.5 4C37.7152 4 44.375 10.6598 44.375 18.875Z" fill="#CFCFFF"/>
<path d="M4 65.3404C4 56.831 10.1831 49.5829 18.5862 48.2418L19.3431 48.121C26.0718 47.0471 32.9282 47.0471 39.6569 48.121L40.4138 48.2418C48.8169 49.5829 55 56.831 55 65.3404C55 69.0184 52.0184 72 48.3404 72H10.6596C6.98161 72 4 69.0184 4 65.3404Z" stroke="white" stroke-width="7"/>
<path d="M44.375 18.875C44.375 27.0902 37.7152 33.75 29.5 33.75C21.2848 33.75 14.625 27.0902 14.625 18.875C14.625 10.6598 21.2848 4 29.5 4C37.7152 4 44.375 10.6598 44.375 18.875Z" stroke="white" stroke-width="7"/>
</svg>
