<svg width="26" height="26" viewBox="0 0 26 26" fill="none" xmlns="http://www.w3.org/2000/svg">
<path d="M13 17.8C15.8995 17.8 18.25 15.3823 18.25 12.4C18.25 9.41766 15.8995 7 13 7C10.1005 7 7.75 9.41766 7.75 12.4C7.75 15.3823 10.1005 17.8 13 17.8ZM13 17.8C18.6304 17.9259 19.732 19.9348 19.9476 22.7854M13 17.8C7.36064 17.8 6.26448 19.8922 6.05141 22.7847M19.9476 22.7854C23.0054 20.6105 25 17.0382 25 13C25 6.37258 19.6274 1 13 1C6.37258 1 1 6.37258 1 13C1 17.0377 2.9942 20.6097 6.05141 22.7847M19.9476 22.7854C17.9869 24.18 15.5892 25 13 25C10.4103 25 8.01222 24.1797 6.05141 22.7847" stroke="#242F5C" stroke-width="2"/>
</svg>
