<svg width="78" height="77" viewBox="0 0 78 77" fill="none" xmlns="http://www.w3.org/2000/svg">
<path d="M71.7776 34.3611C74.7408 36.4979 74.7408 40.8411 71.7776 42.9779C66.8747 46.5128 64.3804 52.4426 65.2997 58.3428C65.8567 61.9206 62.7045 65.0124 59.057 64.4662C53.0418 63.5644 46.9963 66.011 43.3925 70.8201C41.2141 73.7267 36.7861 73.7267 34.6077 70.8201C31.0039 66.011 24.9584 63.5644 18.9433 64.4662C15.2957 65.0124 12.1433 61.9206 12.7006 58.3428C13.6196 52.4426 11.1256 46.5128 6.2227 42.9779C3.2591 40.8411 3.2591 36.4979 6.2227 34.3611C11.1256 30.8262 13.6196 24.8963 12.7006 18.9962C12.1433 15.4184 15.2957 12.3263 18.9433 12.873C24.9584 13.7744 31.0039 11.3281 34.6077 6.51893C36.7861 3.61202 41.2141 3.61202 43.3925 6.51893C46.9963 11.3281 53.0418 13.7744 59.057 12.873C62.7045 12.3263 65.8567 15.4184 65.2997 18.9962C64.3804 24.8963 66.8747 30.8262 71.7776 34.3611Z" stroke="#242F5C" stroke-width="7" stroke-linecap="round" stroke-linejoin="round"/>
<path d="M39 53.2339C46.732 53.2339 53 46.7131 53 38.6694C53 30.6256 46.732 24.1049 39 24.1049C31.268 24.1049 25 30.6256 25 38.6694C25 46.7131 31.268 53.2339 39 53.2339Z" stroke="#242F5C" stroke-width="7" stroke-linecap="round" stroke-linejoin="round"/>
</svg>
