<svg width="134" height="128" viewBox="0 0 134 128" fill="none" xmlns="http://www.w3.org/2000/svg">
<path d="M124.127 56.7214C129.291 60.3313 129.291 67.669 124.127 71.2789C115.582 77.251 111.234 87.2692 112.837 97.2373C113.807 103.282 108.314 108.505 101.956 107.582C91.4728 106.059 80.9364 110.192 74.6554 118.317C70.8588 123.228 63.1415 123.228 59.3449 118.317C53.0639 110.192 42.5275 106.059 32.044 107.582C25.6868 108.505 20.1926 103.282 21.1639 97.2373C22.7656 87.2692 18.419 77.251 9.87384 71.2789C4.70872 67.669 4.70872 60.3313 9.87384 56.7214C18.419 50.7493 22.7656 40.7311 21.1639 30.7631C20.1926 24.7186 25.6868 19.4946 32.044 20.4182C42.5275 21.941 53.0639 17.8082 59.3449 9.68333C63.1415 4.77222 70.8588 4.77222 74.6554 9.68333C80.9364 17.8082 91.4728 21.941 101.956 20.4182C108.314 19.4946 113.807 24.7186 112.837 30.7631C111.234 40.7311 115.582 50.7493 124.127 56.7214Z" stroke="#242F5C" stroke-width="11" stroke-linecap="round" stroke-linejoin="round"/>
<path d="M67 89C80.2548 89 91 77.8071 91 64.0001C91 50.1929 80.2548 39 67 39C53.7452 39 43 50.1929 43 64.0001C43 77.8071 53.7452 89 67 89Z" stroke="#242F5C" stroke-width="11" stroke-linecap="round" stroke-linejoin="round"/>
</svg>
