<svg width="20" height="20" viewBox="0 0 20 20" fill="none" xmlns="http://www.w3.org/2000/svg">
<path fill-rule="evenodd" clip-rule="evenodd" d="M6 3C6 1.34315 7.34315 0 9 0H11C12.6569 0 14 1.34315 14 3V4.17071C14.3128 4.06015 14.6494 4 15 4H17C18.6569 4 20 5.34315 20 7V17C20 18.6569 18.6569 20 17 20H3C1.34315 20 0 18.6569 0 17V11C0 9.34315 1.34315 8 3 8H5C5.35064 8 5.68722 8.06015 6 8.17071V3ZM8 18H12V3C12 2.44772 11.5523 2 11 2H9C8.44772 2 8 2.44772 8 3V18ZM14 18H17C17.5523 18 18 17.5523 18 17V7C18 6.44772 17.5523 6 17 6H15C14.4477 6 14 6.44772 14 7V18ZM6 18V11C6 10.4477 5.55228 10 5 10H3C2.44772 10 2 10.4477 2 11V17C2 17.5523 2.44772 18 3 18H6Z" fill="#242F5C"/>
</svg>
