<svg width="504" height="502" viewBox="0 0 504 502" fill="none" xmlns="http://www.w3.org/2000/svg">
<path d="M252 498.5C390.336 498.5 502.5 387.254 502.5 250C502.5 112.746 390.336 1.5 252 1.5C113.664 1.5 1.5 112.746 1.5 250C1.5 387.254 113.664 498.5 252 498.5Z" fill="#D1DEFF" stroke="#F2F2FF" stroke-width="3"/>
<path d="M229.88 82.3388C228.382 81.4627 226.669 81 224.924 81C223.178 81 221.466 81.4627 219.967 82.3388C218.731 83.2975 217.897 84.6665 217.623 86.1867C217.349 87.7068 217.654 89.2725 218.48 90.5876C240.573 128.04 250.039 175.306 237.724 213.265C229.754 237.832 197.415 239.246 184.016 217.055C181.266 212.501 178.787 207.78 176.597 202.914C161.2 211.285 148.44 223.626 139.702 238.595C130.964 253.564 126.582 270.591 127.031 287.826C129.642 350.936 171.145 397 250.946 397C330.747 397 372.134 348.479 374.861 287.826C378.081 215.045 325.294 125.523 229.88 82.3388Z" stroke="#242F5C" stroke-width="25" stroke-linecap="round" stroke-linejoin="round"/>
<path d="M391.5 458.836L374.5 442.502M374.5 442.502L357.5 458.836M374.5 442.502V480.071C374.5 485.75 374.5 488.59 376.84 491.769C378.394 493.882 382.87 496.489 385.538 496.836C389.554 497.359 391.079 496.594 394.129 495.066C407.721 488.253 417 474.586 417 458.836C417 436.283 397.972 418 374.5 418C351.028 418 332 436.283 332 458.836C332 473.952 340.547 487.149 353.25 494.209" stroke="#242F5C" stroke-width="10" stroke-linecap="round" stroke-linejoin="round"/>
</svg>
